<svg width="1920" height="1080" viewBox="0 0 1920 1080" fill="none" xmlns="http://www.w3.org/2000/svg">
<style>
    #hero-draw {
        animation: reset 0s forwards;
    }
    .path {
        stroke-dasharray: 8000;
        animation: draw 3s ease-in-out;
        animation-fill-mode: both;
    }
    .filler {
        animation: fadeIn 1s ease-in-out;
        animation-delay: .85s;
        animation-fill-mode: both;
    }
    @keyframes reset {
        to {
            visibility: visible;
        }
    }
    @keyframes draw {
        from {
            stroke-dashoffset: 8000;
        }
        to {
            stroke-dashoffset: 0;
        }
    }
    @keyframes fadeIn {
        from {
            opacity: 0;
        }
        to {
            opacity: 1;
        }
    }
</style>
<g id="hero-draw" clip-path="url(#clip0_980_15030)">
<g id="Outline-start">
<path class="path" d="M1263 553.69H1316C1316 553.69 1327.1 556.872 1331.5 562.19C1335.6 567.138 1337 577.69 1337 577.69C1337 577.69 1335.88 722 1337 727.19C1338.12 732.38 1339.83 736.239 1344.5 739.19C1347.74 741.239 1354 741.69 1354 741.69H1691.5C1691.5 741.69 1702.79 741.044 1707 736.19C1710.36 732.317 1711 723.69 1711 723.69L1709 454.19C1709 454.19 1708.98 448.199 1707 445.19C1703.51 439.875 1691.5 440.19 1691.5 440.19H1258C1258 440.19 1250.49 441.77 1247.5 445.19C1244.41 448.725 1244 456.69 1244 456.69V538.19C1244 538.19 1245.19 544.207 1247.5 547.19C1251.51 552.383 1263 553.69 1263 553.69Z" fill="#F7F6F2"/>
<path class="path" d="M0 899.19L1144 902.19H1151L1365.5 904.19H1608.5C1608.5 904.19 1761.38 904.19 1769 904.19C1776.62 904.19 1789 902.953 1789 893.19C1789 883.427 1789 877.953 1789 868.19M1789 868.19C1771.62 834.019 1747.88 783 1744.5 780.69C1741.12 778.38 1740.08 778.378 1737 777.69C1732.81 776.754 1726 777.69 1726 777.69M1789 868.19C1788.03 874.011 1785.12 877.38 1779.5 879.19C1773.88 881 1759.5 881.69 1759.5 881.69H1365.5C1365.5 881.69 1359.16 881.685 1356.5 879.19C1353.29 876.177 1353.72 872.587 1354 868.19C1354.22 864.737 1354.38 860 1356.5 859.69C1358.62 859.38 1541 859.69 1541 859.69M1316 553.69H1169C1169 553.69 1156.27 556.475 1151 562.19C1145.64 568.004 1144 581.19 1144 581.19C1144 581.19 1141.88 874 1144 886.19C1146.12 898.38 1167.38 902.343 1167.38 902.343L1245.88 903.075C1245.88 903.075 1311.88 903.075 1316 902.19C1320.12 901.305 1326.21 901.023 1330.88 897.5C1334.19 895.006 1335.88 893.5 1337 888.19C1338.12 882.88 1337 793.19 1337 793.19C1337 793.19 1338.28 783.957 1342.5 780.69C1345.43 778.421 1351.5 777.69 1351.5 777.69H1726M1316 553.69C1316 553.69 1327.1 556.872 1331.5 562.19C1335.6 567.138 1337 577.69 1337 577.69C1337 577.69 1335.88 722 1337 727.19C1338.12 732.38 1339.83 736.239 1344.5 739.19C1347.74 741.239 1354 741.69 1354 741.69H1691.5C1691.5 741.69 1702.79 741.044 1707 736.19C1710.36 732.317 1711 723.69 1711 723.69L1709 454.19C1709 454.19 1708.98 448.199 1707 445.19C1703.51 439.875 1691.5 440.19 1691.5 440.19H1258C1258 440.19 1250.49 441.77 1247.5 445.19C1244.41 448.725 1244 456.69 1244 456.69V538.19C1244 538.19 1245.19 544.207 1247.5 547.19C1251.51 552.383 1263 553.69 1263 553.69M1316 553.69H1263M1263 553.69H1215V436.19C1215 436.19 1218.16 423.445 1224 418.19C1230.15 412.657 1244 411.19 1244 411.19H1704C1704 411.19 1719.07 411.419 1726.38 416C1732.81 420.027 1734.12 423.38 1737 429.19C1739.88 435 1741.88 747.5 1740 755.69C1738.12 763.88 1738.01 764.158 1735 768.69C1732.25 772.832 1726 777.69 1726 777.69M1053 -911.31C1053 -911.31 1064.1 -908.128 1068.5 -902.81C1072.6 -897.862 1074 -887.31 1074 -887.31M1074 -737.81C1075.12 -732.62 1076.83 -728.761 1081.5 -725.81C1084.74 -723.761 1091 -723.31 1091 -723.31M1428.5 -723.31C1428.5 -723.31 1439.79 -723.956 1444 -728.81C1447.36 -732.683 1448 -741.31 1448 -741.31M1446 -1010.81C1446 -1010.81 1445.98 -1016.8 1444 -1019.81C1440.51 -1025.13 1428.5 -1024.81 1428.5 -1024.81M995 -1024.81C995 -1024.81 987.489 -1023.23 984.5 -1019.81C981.411 -1016.28 981 -1008.31 981 -1008.31M981 -926.81C981 -926.81 982.193 -920.793 984.5 -917.81C988.515 -912.617 1000 -911.31 1000 -911.31" stroke="#323333" stroke-width="3"/>
</g>
<g id="filler-second" class="filler" transform="translate(-3, 0)">
<path id="Vector 559" d="M1253 865.69H1230.5C1228.29 865.69 1226.5 867.481 1226.5 869.69V879.19C1226.5 881.399 1228.29 883.19 1230.5 883.19H1253C1255.21 883.19 1257 881.399 1257 879.19V869.69C1257 867.481 1255.21 865.69 1253 865.69Z" stroke="#323333" stroke-width="3"/>
<path id="Vector 560" d="M1174 848.69C1174 848.69 1168.12 848.237 1166.38 844.5C1165.07 841.666 1165 835.19 1165 835.19C1165 835.19 1164.38 614 1165 609.69C1165.62 605.38 1167.26 602.286 1171 599.69C1174 597.611 1180 597.19 1180 597.19H1309C1309 597.19 1317.33 596.358 1320.5 599.69C1323.27 602.608 1323 609.69 1323 609.69V832.19C1323 832.19 1323.12 839.65 1320.5 843.19C1317.11 847.765 1307 848.69 1307 848.69H1174Z" fill="#F7F6F2" stroke="#323333" stroke-width="3"/>
<path id="Vector 561" d="M1233.23 819.19H1190.55C1188.32 819.19 1186.52 817.368 1186.55 815.139L1186.95 783.765C1186.98 781.527 1188.84 779.747 1191.07 779.817L1231.37 781.077C1233.43 781.141 1235.1 782.757 1235.24 784.812L1237.22 814.927C1237.37 817.235 1235.54 819.19 1233.23 819.19Z" stroke="#323333" stroke-width="3"/>
<path id="Vector 562" d="M1252 808.19H1302" stroke="#323333" stroke-width="3"/>
<path id="Vector 563" d="M1252 781.69H1300.5" stroke="#323333" stroke-width="3"/>
<path id="Vector 564" d="M1186 752.19H1242" stroke="#323333" stroke-width="3"/>
<path id="Vector 565" d="M1185 722.69H1263" stroke="#323333" stroke-width="3"/>
<path id="Vector 566" d="M1187 692.69H1299" stroke="#323333" stroke-width="3"/>
<path id="Vector 567" d="M1186 661.69L1184.5 629.19C1184.5 629.19 1184.89 625.458 1187.38 623.19C1190.13 620.693 1195.5 620.69 1195.5 620.69L1290.5 621.69C1290.5 621.69 1296.43 621.008 1299 623.19C1301 624.886 1302 629.19 1302 629.19V658.69C1302 658.69 1301.07 663.553 1299 665.69C1296.16 668.62 1289 668.69 1289 668.69H1194C1194 668.69 1190.51 668.165 1188.88 667.5C1186.05 666.343 1186 661.69 1186 661.69Z" stroke="#323333" stroke-width="3"/>
<path id="Vector 568" d="M1226 567.19C1223.11 567.38 1220.22 570.376 1220.5 573.69C1220.75 576.717 1223.11 579.19 1226 579.19H1260C1262.61 579.19 1263.79 576.338 1264 573.69C1264.23 570.718 1263.12 568.38 1260 567.19C1256.88 566 1228.88 567 1226 567.19Z" stroke="#323333" stroke-width="3"/>
</g>
</g>
<defs>
<clipPath id="clip0_980_15030">
<rect width="1920" height="1080" fill="white"/>
</clipPath>
</defs>
</svg>
