<svg width="1920" height="1080" viewBox="0 0 1920 1080" fill="none" xmlns="http://www.w3.org/2000/svg">
<g id="hero-draw" clip-path="url(#clip0_951_64200)">
<g id="phone-desktop">
<g id="phone-desktop_2">
<path fill-rule="evenodd" clip-rule="evenodd" d="M1694.8 411.961C1696.25 411.746 1697.52 411.999 1698.59 412.72C1582.5 412.484 1466.4 412.736 1350.31 413.479C1346.48 413.474 1342.94 412.968 1339.69 411.961C1457.85 411.507 1576.22 411.507 1694.8 411.961Z" fill="#030303"/>
<path fill-rule="evenodd" clip-rule="evenodd" d="M1327.55 411.961C1331.6 411.961 1335.64 411.961 1339.69 411.961C1342.94 412.968 1346.48 413.474 1350.31 413.479C1466.41 412.736 1582.5 412.483 1698.6 412.72C1704.67 412.594 1710.74 412.72 1716.81 413.1C1718.49 413.394 1719.5 414.153 1719.84 415.376C1714.97 414.792 1710.04 414.412 1705.05 414.238C1702.5 414.239 1700.1 414.492 1697.84 414.997C1579.36 414.738 1460.99 414.738 1342.73 414.997C1315.66 414.87 1288.6 414.997 1261.54 415.376C1253.16 415.673 1244.81 416.305 1236.5 417.273C1234.18 416.916 1233.93 416.284 1235.74 415.376C1240.28 414.77 1244.83 414.264 1249.39 413.858C1275.71 413.981 1301.76 413.348 1327.55 411.961Z" fill="#343535"/>
<path fill-rule="evenodd" clip-rule="evenodd" d="M1697.84 414.997C1585.16 415.755 1472.35 416.008 1359.42 415.755C1353.71 416.002 1348.15 415.749 1342.72 414.997C1460.99 414.738 1579.36 414.738 1697.84 414.997Z" fill="#020202"/>
<path fill-rule="evenodd" clip-rule="evenodd" d="M1694.8 411.961C1701.5 411.084 1708.33 410.957 1715.29 411.582C1729.39 414.679 1737.23 423.405 1738.81 437.76C1737.48 430.216 1733.69 423.514 1727.43 417.652C1726.73 417.369 1726.1 416.989 1725.53 416.514C1725.41 416.767 1725.28 417.02 1725.15 417.273C1727.16 420.163 1729.31 422.946 1731.6 425.62C1732.59 427.471 1733.48 429.368 1734.26 431.311C1734.2 431.891 1733.95 432.27 1733.5 432.449C1731.8 427.583 1729.02 423.409 1725.15 419.929C1716.57 415.59 1707.47 413.946 1697.84 414.997C1700.1 414.492 1702.5 414.239 1705.04 414.238C1710.04 414.412 1714.97 414.792 1719.84 415.376C1719.5 414.153 1718.49 413.394 1716.81 413.1C1710.74 412.72 1704.67 412.594 1698.59 412.72C1697.52 411.999 1696.25 411.746 1694.8 411.961Z" fill="#1B1C1C"/>
<path fill-rule="evenodd" clip-rule="evenodd" d="M1327.55 411.961C1301.76 413.348 1275.71 413.981 1249.39 413.858C1244.83 414.264 1240.28 414.77 1235.73 415.376C1233.93 416.284 1234.18 416.916 1236.49 417.273C1244.81 416.305 1253.16 415.673 1261.53 415.376C1288.6 414.997 1315.66 414.87 1342.72 414.997C1348.15 415.749 1353.71 416.002 1359.42 415.755C1322.82 416.243 1285.89 416.623 1248.63 416.894C1238.41 416.469 1229.56 419.631 1222.08 426.378C1223.02 424.924 1223.53 423.533 1223.59 422.205C1221.89 422.353 1220.5 423.239 1219.42 424.861C1219.12 424.688 1218.99 424.434 1219.04 424.102C1224.3 418.332 1230.87 414.918 1238.77 413.858C1268.34 412.516 1297.93 411.884 1327.55 411.961Z" fill="#1F2020"/>
<path fill-rule="evenodd" clip-rule="evenodd" d="M1220.56 428.655C1216.2 438.496 1214.43 448.867 1215.25 459.765C1214.63 461.125 1214.25 462.642 1214.11 464.318C1213.23 452.589 1214.75 441.207 1218.66 430.172C1219.36 429.544 1219.86 428.785 1220.18 427.896C1220.48 428.069 1220.61 428.322 1220.56 428.655Z" fill="#131314"/>
<path fill-rule="evenodd" clip-rule="evenodd" d="M1295.68 448.383C1324.01 448.383 1352.34 448.383 1380.67 448.383C1398.93 448.3 1417.14 448.3 1435.3 448.383C1439.34 448.383 1443.39 448.383 1447.44 448.383C1530.97 447.961 1614.44 447.961 1697.84 448.383C1698.44 449.067 1699.2 449.573 1700.12 449.901C1702.49 451.616 1704.14 453.892 1705.05 456.73C1705.3 461.283 1705.55 465.835 1705.81 470.388C1706.33 511.764 1706.21 553.245 1705.43 594.83C1705.43 597.106 1705.43 599.382 1705.43 601.659C1705.43 609.499 1705.43 617.341 1705.43 625.181C1705.43 631.251 1705.43 637.322 1705.43 643.392C1705.69 669.538 1705.95 695.843 1706.19 722.306C1706.19 725.594 1706.19 728.883 1706.19 732.17C1705.89 736.954 1703.61 740.368 1699.36 742.414C1680.64 742.38 1661.93 742.253 1643.21 742.035C1642.45 742.035 1641.69 742.035 1640.93 742.035C1631.32 742.035 1621.71 742.035 1612.1 742.035C1611.34 742.035 1610.58 742.035 1609.82 742.035C1523.57 742.715 1437.32 742.967 1351.07 742.793C1342.68 741.732 1338.63 736.926 1338.93 728.376C1339.27 682.48 1339.27 636.447 1338.93 590.277C1338.95 580.603 1336.3 571.75 1330.96 563.719C1325.14 558.215 1318.18 555.054 1310.1 554.234C1301.25 553.855 1292.4 553.728 1283.54 553.855C1273.59 553.805 1263.47 553.805 1253.19 553.855C1251.7 554.036 1250.3 553.784 1249.02 553.096C1247.09 549.736 1245.19 546.448 1243.32 543.232C1243.87 516.93 1244.38 490.625 1244.84 464.318C1244.84 463.306 1244.84 462.294 1244.84 461.283C1244.7 452.179 1249.12 447.626 1258.12 447.625C1270.63 448.332 1283.15 448.585 1295.68 448.383Z" fill="#F7F6F2"/>
<path fill-rule="evenodd" clip-rule="evenodd" d="M1282.02 444.589C1275.47 445.18 1267.88 445.686 1259.26 446.107C1256.28 445.954 1256.28 445.575 1259.26 444.969C1255.85 444.322 1252.56 444.702 1249.39 446.107C1248.38 446.866 1248.38 447.624 1249.39 448.383C1250.38 447.929 1251.39 447.55 1252.43 447.245C1269.12 446.739 1285.82 446.739 1302.51 447.245C1300.09 447.382 1297.81 447.762 1295.68 448.383C1283.15 448.585 1270.63 448.332 1258.12 447.625C1249.12 447.626 1244.7 452.179 1244.84 461.283C1244.23 460.181 1243.85 458.917 1243.7 457.489C1243.46 458.855 1242.96 459.108 1242.19 458.247C1241.21 486.319 1240.71 514.394 1240.67 542.473C1240.74 540.18 1241.38 538.156 1242.57 536.403C1242.31 539.283 1242.56 541.56 1243.32 543.232C1245.19 546.448 1247.09 549.736 1249.02 553.096C1250.3 553.784 1251.7 554.036 1253.19 553.855C1253.77 554.438 1254.53 554.817 1255.46 554.993C1252.58 554.731 1249.67 555.111 1246.74 556.131C1246.49 555.625 1246.23 555.12 1245.98 554.614C1230.86 555.624 1215.81 555.624 1200.83 554.614C1215.44 554.511 1229.99 554.511 1244.46 554.614C1242.81 551.549 1241.29 548.26 1239.91 544.75C1239.68 514.875 1240.18 485.029 1241.43 455.212C1242.45 449.637 1245.62 445.97 1250.91 444.21C1261.3 443.633 1271.67 443.759 1282.02 444.589Z" fill="#1E1F1F"/>
<path fill-rule="evenodd" clip-rule="evenodd" d="M1212.21 443.072C1212.39 474.096 1212.13 505.08 1211.45 536.023C1211.58 539.438 1211.71 542.853 1211.83 546.267C1215.2 551.342 1216.09 551.089 1214.49 545.508C1216.64 546.643 1217.4 548.286 1216.76 550.44C1213.97 550.958 1212.07 549.82 1211.07 547.026C1210.26 543.548 1209.88 540.008 1209.93 536.403C1211.59 512.011 1211.84 487.603 1210.69 463.18C1210.65 456.321 1211.16 449.618 1212.21 443.072Z" fill="#171717"/>
<path fill-rule="evenodd" clip-rule="evenodd" d="M1739.57 439.278C1739.73 458.431 1740.23 477.527 1741.09 496.566C1740.36 499.397 1740.11 502.305 1740.33 505.292C1739.68 487.462 1739.17 469.503 1738.81 451.418C1738.81 447.237 1739.07 443.19 1739.57 439.278Z" fill="#070707"/>
<path fill-rule="evenodd" clip-rule="evenodd" d="M1215.25 466.594C1216.18 486.959 1215.93 507.193 1214.49 527.297C1214.58 506.531 1214.46 485.791 1214.11 465.077C1214.32 465.772 1214.7 466.277 1215.25 466.594Z" fill="#0E0E0F"/>
<path fill-rule="evenodd" clip-rule="evenodd" d="M1244.84 464.318C1244.37 490.625 1243.87 516.93 1243.32 543.232C1242.56 541.56 1242.31 539.283 1242.56 536.403C1243.02 511.751 1243.4 487.216 1243.7 462.8C1243.91 463.495 1244.29 464.001 1244.84 464.318Z" fill="#141414"/>
<path fill-rule="evenodd" clip-rule="evenodd" d="M1222.08 426.378C1222.13 427.537 1221.63 428.296 1220.56 428.655C1220.61 428.322 1220.48 428.069 1220.18 427.896C1219.86 428.785 1219.36 429.544 1218.66 430.172C1214.75 441.207 1213.23 452.589 1214.11 464.318C1214.25 462.642 1214.63 461.125 1215.25 459.765C1215.25 462.042 1215.25 464.318 1215.25 466.594C1214.7 466.277 1214.32 465.772 1214.11 465.077C1214.46 485.791 1214.58 506.531 1214.49 527.297C1214.49 533.368 1214.49 539.438 1214.49 545.508C1216.09 551.089 1215.2 551.342 1211.83 546.267C1211.71 542.853 1211.58 539.438 1211.45 536.023C1212.13 505.08 1212.39 474.096 1212.21 443.072C1212.17 435.835 1214.45 429.512 1219.04 424.102C1218.99 424.434 1219.12 424.688 1219.42 424.861C1220.5 423.239 1221.89 422.353 1223.59 422.205C1223.53 423.533 1223.02 424.924 1222.08 426.378Z" fill="#303131"/>
<path fill-rule="evenodd" clip-rule="evenodd" d="M1244.84 461.283C1244.84 462.294 1244.84 463.306 1244.84 464.318C1244.29 464.001 1243.91 463.495 1243.7 462.8C1243.41 487.216 1243.03 511.75 1242.57 536.403C1241.38 538.156 1240.74 540.18 1240.67 542.473C1240.71 514.394 1241.21 486.319 1242.19 458.247C1242.96 459.108 1243.46 458.855 1243.7 457.489C1243.85 458.917 1244.23 460.181 1244.84 461.283Z" fill="#323434"/>
<path fill-rule="evenodd" clip-rule="evenodd" d="M1700.11 449.901C1700.16 449.489 1700.41 449.236 1700.87 449.142C1703.52 451.396 1705.42 454.177 1706.56 457.489C1707.07 504.028 1707.07 550.567 1706.56 597.106C1706.39 596.167 1706.01 595.409 1705.42 594.83C1706.21 553.245 1706.33 511.764 1705.8 470.388C1705.55 465.835 1705.3 461.283 1705.05 456.73C1704.14 453.892 1702.49 451.616 1700.11 449.901Z" fill="#0B0C0C"/>
<path fill-rule="evenodd" clip-rule="evenodd" d="M1283.54 553.855C1289.22 554.484 1295.04 554.863 1300.99 554.993C1302.32 555.351 1303.58 555.857 1304.79 556.511C1286.05 556.574 1271.89 556.953 1262.29 557.649C1238.14 558.47 1213.86 558.976 1189.45 559.167C1179.14 557.716 1168.9 558.474 1158.72 561.443C1157.79 561.168 1156.9 560.789 1156.06 560.305C1165.61 556.284 1175.34 555.398 1185.28 557.649C1190.13 556.488 1195.07 555.856 1200.07 555.752C1196.14 555.62 1192.34 555.241 1188.69 554.614Z" fill="#303131">
    <animate
        attributeName="stroke-dasharray"
        values="0, 10000; 10000, 0"
        dur="5s"
        fill="freeze"
        begin="0s"
        calcMode="linear"
        restart="always"
    />
    <animate
        attributeName="stroke-dashoffset"
        values="10000; 0"
        dur="5s"
        fill="freeze"
        begin="0s"
        calcMode="linear"
        restart="always"
    />
</path>
<path fill-rule="evenodd" clip-rule="evenodd" d="M1188.69 554.614C1192.34 555.241 1196.14 555.62 1200.07 555.752C1195.07 555.856 1190.13 556.488 1185.28 557.649C1175.34 555.398 1165.61 556.284 1156.06 560.305C1156.9 560.789 1157.79 561.168 1158.72 561.443C1168.9 558.474 1179.14 557.716 1189.45 559.167C1181.59 559.066 1173.74 559.446 1165.93 560.305C1157.21 562.331 1150.89 567.264 1146.96 575.101C1145.93 573.948 1144.92 573.442 1143.92 573.583C1146.21 566.104 1151.02 560.919 1158.34 558.028C1168.33 555.886 1178.45 554.747 1188.69 554.614Z" fill="#222323" stroke="#222323" stroke-width="2" stroke-dasharray="1000" stroke-dashoffset="1000" class="draw"/>
<path fill-rule="evenodd" clip-rule="evenodd" d="M1188.69 554.614C1192.34 555.241 1196.14 555.62 1200.07 555.752C1195.07 555.856 1190.13 556.488 1185.28 557.649C1175.34 555.398 1165.61 556.284 1156.06 560.305C1156.9 560.789 1157.79 561.168 1158.72 561.443C1168.9 558.474 1179.14 557.716 1189.45 559.167C1181.59 559.066 1173.74 559.446 1165.93 560.305C1157.21 562.331 1150.89 567.264 1146.96 575.101C1145.93 573.948 1144.92 573.442 1143.92 573.583C1146.21 566.104 1151.02 560.919 1158.34 558.028C1168.33 555.886 1178.45 554.747 1188.69 554.614Z" fill="#222323" stroke="#222323" stroke-width="2" stroke-dasharray="1000" stroke-dashoffset="1000" class="draw"/>
<path fill-rule="evenodd" clip-rule="evenodd" d="M1283.54 553.855C1292.4 553.728 1301.25 553.855 1310.1 554.234C1318.18 555.054 1325.14 558.215 1330.96 563.719C1336.3 571.75 1338.95 580.603 1338.93 590.277C1338.18 604.562 1337.92 618.979 1338.17 633.528C1337.54 642.755 1337.16 652.113 1337.03 661.603C1336.57 635.535 1336.57 609.484 1337.03 583.448C1336.89 585.123 1336.51 586.641 1335.9 588C1335.5 586.63 1334.99 585.366 1334.38 584.207C1332.52 566.547 1322.66 557.821 1304.79 558.028C1290.62 557.649 1276.46 557.522 1262.29 557.649C1271.89 556.953 1286.05 556.574 1304.79 556.511C1303.58 555.857 1302.32 555.351 1300.99 554.993C1295.04 554.863 1289.22 554.484 1283.54 553.855Z" fill="#232425"/>
<path fill-rule="evenodd" clip-rule="evenodd" d="M1222.84 570.548C1234.47 570.422 1246.11 570.548 1257.74 570.928C1259.38 571.56 1260.52 572.698 1261.15 574.342C1263.64 581.63 1261.24 586.056 1253.95 587.621C1242.82 588.127 1231.69 588.127 1220.56 587.621C1218.22 587.025 1216.58 585.634 1215.63 583.448C1213.52 576.373 1215.93 572.073 1222.84 570.548Z" fill="#2D2E2E"/>
<path fill-rule="evenodd" clip-rule="evenodd" d="M1257.74 581.93C1254.24 583.282 1250.58 584.04 1246.74 584.207C1239.26 583.367 1231.67 583.367 1223.97 584.207C1217.5 582.844 1216.62 579.809 1221.32 575.101C1232.93 574.265 1244.57 574.138 1256.22 574.722C1257.62 576.866 1258.12 579.269 1257.74 581.93Z" fill="#F2F1EF"/>
<path fill-rule="evenodd" clip-rule="evenodd" d="M1257.74 581.93C1258.12 579.269 1257.62 576.866 1256.22 574.722C1244.57 574.138 1232.93 574.265 1221.32 575.101C1221.63 574.553 1222.14 574.174 1222.83 573.963C1234.22 573.457 1245.6 573.457 1256.98 573.963C1258.14 575.213 1258.65 576.731 1258.5 578.516C1258.49 579.811 1258.24 580.949 1257.74 581.93Z" fill="#050606"/>
<path fill-rule="evenodd" clip-rule="evenodd" d="M1146.2 578.136C1145.77 583.358 1145.26 588.543 1144.68 593.691C1145.03 594.006 1145.28 594.385 1145.44 594.83C1144.4 629.193 1143.89 663.592 1143.92 698.025C1142.99 660.46 1143.11 622.774 1144.3 584.965C1144.6 582.143 1145.1 579.361 1145.82 576.619C1146.17 577.069 1146.3 577.575 1146.2 578.136Z" fill="#212121"/>
<path fill-rule="evenodd" clip-rule="evenodd" d="M1291.89 600.141C1257.61 600.714 1223.21 601.22 1188.69 601.659C1184.51 601.658 1180.46 601.405 1176.55 600.9C1201.42 600.325 1226.34 599.819 1251.29 599.382C1264.83 599.511 1278.36 599.763 1291.89 600.141Z" fill="#1D1D1D"/>
<path fill-rule="evenodd" clip-rule="evenodd" d="M1291.89 600.141C1294.07 599.909 1296.1 600.161 1297.96 600.9C1296.17 600.776 1294.4 600.902 1292.64 601.279C1297.33 601.335 1301.89 602.093 1306.3 603.556C1292.15 603.261 1277.99 602.882 1263.81 602.417C1258.87 602.417 1254.07 602.671 1249.39 603.176C1223.53 602.925 1198.24 603.431 1173.51 604.694C1170.63 605.123 1168.1 606.388 1165.93 608.488C1165.69 607.178 1165.56 605.913 1165.55 604.694C1167.99 603.206 1170.64 602.321 1173.51 602.038C1172.79 601.671 1172.04 601.546 1171.24 601.659C1172.84 600.924 1174.61 600.671 1176.55 600.9C1180.46 601.405 1184.51 601.658 1188.69 601.659C1223.21 601.22 1257.61 600.714 1291.89 600.141Z" fill="#333434"/>
<path fill-rule="evenodd" clip-rule="evenodd" d="M1143.92 573.583C1144.92 573.442 1145.93 573.948 1146.96 575.101C1147.16 576.314 1146.91 577.326 1146.2 578.136C1146.3 577.575 1146.17 577.069 1145.82 576.619C1145.1 579.361 1144.6 582.143 1144.3 584.965C1143.11 622.774 1142.99 660.46 1143.92 698.025C1143.92 698.784 1143.92 699.542 1143.92 700.301C1142.91 704.062 1142.41 708.108 1142.4 712.442C1141.76 725.085 1141.63 737.732 1142.03 750.381C1142.16 746.196 1142.54 742.149 1143.16 738.241C1143.16 746.081 1143.16 753.923 1143.16 761.763C1142.54 758.616 1142.16 755.328 1142.03 751.899C1141.6 789.342 1140.96 826.776 1140.13 864.2C1140.25 870.017 1140.38 875.834 1140.51 881.652C1140.91 884.539 1141.67 887.321 1142.78 889.998C1143.09 889.825 1143.21 889.572 1143.16 889.24C1143.8 889.499 1144.05 890.005 1143.92 890.757C1143.51 890.803 1143.26 891.055 1143.16 891.516C1144.8 893.241 1144.93 895.012 1143.54 896.828C1141.43 893.008 1139.91 888.96 1138.99 884.687C1138.19 874.468 1137.56 864.351 1137.09 854.335C1136.86 851.897 1137.11 849.621 1137.85 847.506C1138.73 816.195 1139.49 784.326 1140.13 751.899C1140 748.611 1139.88 745.322 1139.75 742.035C1139.54 742.73 1139.16 743.235 1138.61 743.552C1138.36 737.847 1138.62 732.283 1139.37 726.859C1140.39 688.029 1141.4 640.1 1142.4 583.068C1142.39 582.017 1142.14 581.133 1141.65 580.413C1141.97 577.92 1142.73 575.644 1143.92 573.583Z" fill="#323334"/>
<path fill-rule="evenodd" clip-rule="evenodd" d="M1249.39 603.176C1249.39 603.429 1249.39 603.682 1249.39 603.935C1224.2 603.931 1198.91 604.184 1173.52 604.694C1198.24 603.431 1223.53 602.925 1249.39 603.176Z" fill="#080908"/>
<path fill-rule="evenodd" clip-rule="evenodd" d="M1249.39 603.935C1265.33 603.808 1281.26 603.935 1297.19 604.314C1302.32 604.53 1307.38 605.163 1312.37 606.211C1314.3 608.051 1315.44 610.328 1315.78 613.04C1316.54 691.238 1316.29 769.394 1315.03 847.506C1313.03 849.579 1310.63 850.969 1307.82 851.68C1262.29 853.166 1216.76 853.166 1171.24 851.68C1168.32 851.501 1165.54 850.868 1162.89 849.783C1160.62 843.332 1160.11 836.756 1161.37 830.054C1161.37 828.537 1161.37 827.019 1161.37 825.501C1161.82 810.147 1161.82 795.223 1161.37 780.733C1161.62 780.227 1161.88 779.721 1162.13 779.215C1162.22 724.581 1162.6 669.948 1163.27 615.317C1163.36 612.689 1164.24 610.413 1165.92 608.488C1168.1 606.388 1170.63 605.123 1173.51 604.694C1198.9 604.184 1224.2 603.931 1249.39 603.935Z" fill="#F6F5F2"/>
<path fill-rule="evenodd" clip-rule="evenodd" d="M1706.18 450.66C1708.54 452.862 1709.68 455.643 1709.6 459.006C1709.93 550.569 1710.18 642.13 1710.36 733.688C1709.88 736.785 1708.74 739.567 1706.94 742.035C1706.53 741.989 1706.28 741.736 1706.18 741.276C1707.47 739.717 1708.35 737.946 1708.84 735.964C1710.46 728.564 1710.33 721.229 1708.46 713.959C1708.73 629.186 1708.85 544.455 1708.84 459.765C1708.6 456.519 1707.72 453.484 1706.18 450.66Z" fill="#121313"/>
<path fill-rule="evenodd" clip-rule="evenodd" d="M1705.43 625.181C1705.43 617.341 1705.43 609.499 1705.43 601.659C1705.97 601.342 1706.35 600.836 1706.56 600.141C1707.07 608.994 1707.07 617.846 1706.56 626.699C1706.35 626.004 1705.97 625.498 1705.43 625.181Z" fill="#1B1C1B"/>
<path fill-rule="evenodd" clip-rule="evenodd" d="M1334.38 584.207C1334.99 585.366 1335.5 586.63 1335.9 588C1336.15 635.932 1335.89 683.736 1335.14 731.412C1335.15 682.341 1334.89 633.273 1334.38 584.207Z" fill="#131414"/>
<path fill-rule="evenodd" clip-rule="evenodd" d="M1141.65 580.413C1142.14 581.133 1142.39 582.017 1142.4 583.068C1141.4 640.1 1140.39 688.029 1139.37 726.859C1139.03 678.018 1139.79 629.203 1141.65 580.413Z" fill="#181818"/>
<path fill-rule="evenodd" clip-rule="evenodd" d="M1739.57 685.125C1739.41 625.689 1739.67 566.251 1740.33 506.81C1738.85 566.245 1738.59 625.683 1739.57 685.125Z" fill="#0F0F0F"/>
<path fill-rule="evenodd" clip-rule="evenodd" d="M1338.93 590.277C1339.27 636.447 1339.27 682.48 1338.93 728.376C1338.17 699.305 1337.92 667.689 1338.17 633.528C1337.92 618.979 1338.18 604.562 1338.93 590.277Z" fill="#0F0F0F"/>
<path fill-rule="evenodd" clip-rule="evenodd" d="M1737.29 762.522C1736.03 691.112 1735.52 619.786 1735.78 548.543C1736.41 527.426 1736.79 506.18 1736.91 484.805C1737.04 497.831 1737.17 510.857 1737.29 523.883C1736.81 603.558 1736.81 683.104 1737.29 762.522Z" fill="#0B0C0C"/>
<path fill-rule="evenodd" clip-rule="evenodd" d="M1171.24 601.659C1172.04 601.546 1172.8 601.672 1173.52 602.038C1170.64 602.321 1167.99 603.206 1165.55 604.694C1165.56 605.913 1165.69 607.178 1165.93 608.488C1164.25 610.413 1163.36 612.689 1163.27 615.317C1162.6 669.948 1162.22 724.581 1162.13 779.215C1161.43 723.949 1161.31 668.557 1161.75 613.041C1161.5 612.282 1161.25 611.523 1161 610.764C1160.74 612.282 1160.49 613.799 1160.24 615.317C1160.12 625.998 1159.74 636.115 1159.1 645.669C1158.97 634.284 1159.1 622.902 1159.48 611.523C1161.45 605.88 1165.37 602.592 1171.24 601.659Z" fill="#131414"/>
<path fill-rule="evenodd" clip-rule="evenodd" d="M1297.96 600.9C1303.4 600.53 1308.71 601.162 1313.89 602.797C1315.49 603.663 1316.88 604.801 1318.06 606.211C1319.24 609.286 1320.12 612.447 1320.72 615.696C1320.21 688.37 1319.95 761.087 1319.96 833.848C1319.33 761.278 1318.95 687.17 1318.82 611.523C1318.15 608.904 1316.88 606.627 1315.03 604.694C1313.63 605.705 1313.25 605.579 1313.89 604.315C1311.83 602.739 1309.55 602.233 1307.06 602.797C1308.27 604.101 1310.04 605.239 1312.37 606.211C1307.38 605.163 1302.32 604.53 1297.2 604.315C1281.27 603.935 1265.33 603.808 1249.39 603.935C1249.39 603.682 1249.39 603.429 1249.39 603.176C1254.07 602.671 1258.87 602.418 1263.81 602.418C1277.99 602.882 1292.15 603.261 1306.3 603.556C1301.89 602.094 1297.33 601.335 1292.65 601.279C1294.4 600.902 1296.17 600.776 1297.96 600.9Z" fill="#111111"/>
<path fill-rule="evenodd" clip-rule="evenodd" d="M1706.19 722.306C1705.95 695.843 1705.69 669.538 1705.43 643.392C1706.06 638.47 1706.43 633.411 1706.56 628.216C1707.17 662.614 1707.42 697.013 1707.32 731.412C1707.19 728.234 1706.81 725.199 1706.19 722.306Z" fill="#1E1F1E"/>
<path fill-rule="evenodd" clip-rule="evenodd" d="M1738.81 437.76C1739.45 438.02 1739.7 438.525 1739.57 439.278C1739.06 443.19 1738.81 447.237 1738.81 451.418C1739.17 469.503 1739.68 487.462 1740.33 505.292C1740.33 505.799 1740.33 506.304 1740.33 506.81C1738.84 566.245 1738.59 625.683 1739.57 685.125C1739.71 706.25 1739.45 727.37 1738.81 748.484C1738.94 752.405 1739.06 756.325 1739.19 760.246C1739.44 754.175 1739.7 748.105 1739.95 742.035C1740.08 749.25 1740.46 756.332 1741.09 763.281C1741.22 764.033 1740.96 764.539 1740.33 764.798C1739.43 765.755 1738.54 767.273 1737.67 769.351C1737.29 768.592 1736.91 767.833 1736.53 767.075C1737.18 765.626 1737.43 764.109 1737.29 762.522C1736.81 683.104 1736.81 603.558 1737.29 523.883C1737.17 510.857 1737.04 497.831 1736.91 484.805C1736.79 506.18 1736.41 527.426 1735.78 548.543C1735.9 512.626 1735.78 476.71 1735.4 440.795C1734.88 437.972 1734.25 435.19 1733.5 432.449C1733.95 432.27 1734.2 431.891 1734.26 431.311C1733.48 429.368 1732.59 427.471 1731.6 425.62C1729.31 422.946 1727.16 420.163 1725.15 417.273C1725.28 417.02 1725.41 416.767 1725.53 416.514C1726.1 416.989 1726.73 417.369 1727.43 417.652C1733.69 423.514 1737.48 430.216 1738.81 437.76Z" fill="#353637"/>
<path fill-rule="evenodd" clip-rule="evenodd" d="M1159.1 648.704C1159.6 656.161 1159.86 663.749 1159.86 671.467C1159.54 701.587 1159.03 730.169 1158.34 757.21C1158.2 721.037 1158.46 684.868 1159.1 648.704Z" fill="#0A0A0B"/>
<path fill-rule="evenodd" clip-rule="evenodd" d="M1143.92 700.301C1143.17 712.889 1142.92 725.536 1143.16 738.241C1142.54 742.149 1142.16 746.196 1142.03 750.381C1141.63 737.732 1141.76 725.085 1142.4 712.442C1142.41 708.108 1142.91 704.062 1143.92 700.301Z" fill="#0C0D0E"/>
<path fill-rule="evenodd" clip-rule="evenodd" d="M1338.17 633.528C1337.92 667.688 1338.17 699.305 1338.93 728.376C1338.63 736.926 1342.68 741.732 1351.07 742.793C1436.29 743.677 1523.04 743.803 1611.34 743.173C1610.64 742.962 1610.14 742.583 1609.82 742.035C1610.58 742.035 1611.34 742.035 1612.1 742.035C1615.35 743.042 1618.89 743.547 1622.72 743.552C1628.95 743.624 1635.02 743.118 1640.93 742.035C1641.69 742.035 1642.45 742.035 1643.21 742.035C1642.89 742.583 1642.38 742.962 1641.69 743.173C1651.81 743.547 1661.93 744.053 1672.04 744.69C1564.92 745.368 1457.94 746.001 1351.07 746.587C1341.31 746.186 1336 741.128 1335.14 731.412C1335.89 683.736 1336.15 635.932 1335.9 588C1336.51 586.641 1336.89 585.123 1337.03 583.448C1336.57 609.484 1336.57 635.535 1337.03 661.603C1337.16 652.113 1337.54 642.755 1338.17 633.528Z" fill="#323334"/>
<path fill-rule="evenodd" clip-rule="evenodd" d="M1609.82 742.035C1610.13 742.583 1610.64 742.962 1611.34 743.173C1523.04 743.803 1436.29 743.677 1351.07 742.793C1437.32 742.967 1523.57 742.715 1609.82 742.035Z" fill="#070808"/>
<path fill-rule="evenodd" clip-rule="evenodd" d="M1612.09 742.035C1621.71 742.035 1631.32 742.035 1640.93 742.035C1635.02 743.118 1628.95 743.624 1622.72 743.552C1618.89 743.547 1615.34 743.042 1612.09 742.035Z" fill="#151616"/>
<path fill-rule="evenodd" clip-rule="evenodd" d="M1706.18 450.66C1707.72 453.484 1708.6 456.519 1708.84 459.765C1708.85 544.455 1708.73 629.186 1708.46 713.959C1710.33 721.229 1710.46 728.564 1708.84 735.964C1708.35 737.946 1707.47 739.717 1706.18 741.276C1706.28 741.736 1706.53 741.989 1706.94 742.035C1706.44 743.046 1705.68 743.805 1704.66 744.311C1704.62 743.899 1704.37 743.646 1703.91 743.552C1699.56 745.408 1695.01 746.167 1690.25 745.829C1685.57 746.043 1681.01 745.41 1676.59 743.932C1684.43 743.679 1692.27 743.425 1700.11 743.173C1704.88 740.83 1706.91 737.162 1706.18 732.17C1706.18 728.883 1706.18 725.594 1706.18 722.306C1706.81 725.199 1707.19 728.234 1707.32 731.412C1707.42 697.013 1707.17 662.614 1706.56 628.216C1706.43 633.411 1706.05 638.47 1705.42 643.392C1705.42 637.322 1705.42 631.251 1705.42 625.181C1705.97 625.498 1706.35 626.004 1706.56 626.699C1707.07 617.846 1707.07 608.994 1706.56 600.141C1706.35 600.836 1705.97 601.342 1705.42 601.659C1705.42 599.382 1705.42 597.106 1705.42 594.83C1706.01 595.409 1706.39 596.167 1706.56 597.106C1707.07 550.567 1707.07 504.028 1706.56 457.489C1705.41 454.177 1703.52 451.396 1700.87 449.142C1700.41 449.236 1700.16 449.489 1700.11 449.901C1699.19 449.573 1698.44 449.067 1697.84 448.383C1698.17 448.433 1698.42 448.307 1698.59 448.004C1698.09 447.751 1697.58 447.498 1697.08 447.245C1613.36 446.739 1529.64 446.739 1445.92 447.245C1446.61 447.456 1447.12 447.835 1447.44 448.383C1443.39 448.383 1439.34 448.383 1435.29 448.383C1437.93 447.759 1440.72 447.379 1443.64 447.245C1397.61 446.739 1351.58 446.739 1305.54 447.245C1330.71 447.373 1355.75 447.752 1380.66 448.383C1352.33 448.383 1324.01 448.383 1295.68 448.383C1297.81 447.762 1300.08 447.382 1302.51 447.245C1285.81 446.739 1269.12 446.739 1252.43 447.245C1251.39 447.55 1250.37 447.93 1249.39 448.383C1248.38 447.625 1248.38 446.866 1249.39 446.107C1252.56 444.702 1255.84 444.322 1259.26 444.969C1256.28 445.575 1256.28 445.954 1259.26 446.107C1267.88 445.687 1275.47 445.18 1282.02 444.589C1284.3 443.578 1286.57 443.578 1288.85 444.589C1296.91 445.462 1306.53 445.588 1317.68 444.969C1316.99 444.758 1316.48 444.378 1316.16 443.831C1317.38 443.627 1318.39 443.881 1319.2 444.589C1327.99 444.78 1337.47 445.032 1347.65 445.348C1349.16 445.296 1350.3 444.79 1351.07 443.831C1351.83 443.831 1352.59 443.831 1353.35 443.831C1353.03 444.378 1352.52 444.758 1351.83 444.969C1382.71 445.595 1412.05 445.469 1439.85 444.589C1445.4 444.507 1450.96 444.507 1456.54 444.589C1467.4 445.462 1480.3 445.589 1495.24 444.969C1494.54 444.758 1494.04 444.378 1493.72 443.831C1499.25 444.501 1504.81 444.755 1510.41 444.589C1531.66 445.601 1552.91 445.601 1574.15 444.589C1576.43 443.578 1578.71 443.578 1580.98 444.589C1599.18 445.463 1619.92 445.59 1643.2 444.969C1642.26 444.793 1641.51 444.413 1640.93 443.831C1654.79 443.946 1668.58 443.693 1682.28 443.072C1687.18 443.661 1692.12 444.04 1697.08 444.21C1699.64 444.605 1701.91 445.617 1703.91 447.245C1705.15 448.102 1705.91 449.24 1706.18 450.66Z" fill="#353637"/>
<path fill-rule="evenodd" clip-rule="evenodd" d="M1697.84 448.383C1614.43 447.961 1530.97 447.961 1447.44 448.383C1447.12 447.835 1446.61 447.456 1445.92 447.245C1529.64 446.739 1613.36 446.739 1697.08 447.245C1697.58 447.498 1698.09 447.751 1698.59 448.004C1698.42 448.307 1698.17 448.433 1697.84 448.383Z" fill="#191A1A"/>
<path fill-rule="evenodd" clip-rule="evenodd" d="M1435.3 448.383C1417.14 448.3 1398.92 448.3 1380.66 448.383C1355.75 447.752 1330.71 447.373 1305.54 447.245C1351.58 446.739 1397.61 446.739 1443.64 447.245C1440.72 447.379 1437.93 447.759 1435.3 448.383Z" fill="#111213"/>
<path fill-rule="evenodd" clip-rule="evenodd" d="M1640.93 443.831C1641.51 444.413 1642.27 444.793 1643.21 444.969C1619.92 445.59 1599.18 445.463 1580.98 444.589C1600.93 444.507 1620.91 444.254 1640.93 443.831Z" fill="#151616"/>
<path fill-rule="evenodd" clip-rule="evenodd" d="M1574.16 444.589C1552.91 445.601 1531.66 445.601 1510.42 444.589C1531.75 444.484 1553 444.484 1574.16 444.589Z" fill="#070809"/>
<path fill-rule="evenodd" clip-rule="evenodd" d="M1493.72 443.831C1494.04 444.378 1494.55 444.758 1495.24 444.969C1480.3 445.589 1467.4 445.462 1456.54 444.589C1469.07 444.557 1481.46 444.305 1493.72 443.831Z" fill="#151515"/>
<path fill-rule="evenodd" clip-rule="evenodd" d="M1353.35 443.831C1382.22 444.047 1411.05 444.299 1439.85 444.589C1412.05 445.469 1382.71 445.595 1351.83 444.969C1352.52 444.758 1353.03 444.378 1353.35 443.831Z" fill="#0D0E0F"/>
<path fill-rule="evenodd" clip-rule="evenodd" d="M1316.17 443.831C1316.48 444.378 1316.99 444.758 1317.69 444.969C1306.53 445.588 1296.92 445.462 1288.85 444.589C1297.99 444.812 1307.1 444.558 1316.17 443.831Z" fill="#050606"/>
<path fill-rule="evenodd" clip-rule="evenodd" d="M1351.07 443.831C1350.3 444.79 1349.16 445.296 1347.66 445.348C1337.47 445.033 1327.99 444.78 1319.2 444.589C1329.82 444.01 1340.44 443.758 1351.07 443.831Z" fill="#090A0A"/>
<path fill-rule="evenodd" clip-rule="evenodd" d="M1706.18 732.17C1706.91 737.162 1704.88 740.83 1700.11 743.173C1692.27 743.426 1684.43 743.679 1676.59 743.932C1681.01 745.41 1685.57 746.043 1690.25 745.829C1695.01 746.167 1699.57 745.408 1703.91 743.552C1704.37 743.646 1704.62 743.899 1704.67 744.311C1703.62 745.298 1702.35 745.93 1700.87 746.208C1683.55 746.335 1666.22 746.461 1648.9 746.587C1549.79 746.433 1450.52 746.433 1351.07 746.587C1457.94 746.001 1564.92 745.368 1672.04 744.69C1661.93 744.053 1651.81 743.547 1641.69 743.173C1642.38 742.962 1642.89 742.583 1643.2 742.035C1661.92 742.253 1680.64 742.38 1699.35 742.414C1703.61 740.368 1705.88 736.954 1706.18 732.17Z" fill="#131414"/>
<path fill-rule="evenodd" clip-rule="evenodd" d="M1739.57 685.125C1740.6 709.42 1741.36 733.828 1741.85 758.349C1741.25 759.941 1741 761.586 1741.09 763.281C1740.46 756.332 1740.08 749.25 1739.95 742.035C1739.7 748.105 1739.44 754.175 1739.19 760.246C1739.07 756.325 1738.94 752.405 1738.81 748.484C1739.46 727.37 1739.71 706.25 1739.57 685.125Z" fill="#1E1F1F"/>
<path fill-rule="evenodd" clip-rule="evenodd" d="M1724.4 778.457C1724.14 779.092 1723.63 779.346 1722.88 779.215C1659.08 779.468 1595.85 779.215 1533.18 778.457C1596.94 778.057 1660.68 778.057 1724.4 778.457Z" fill="#202120"/>
<path fill-rule="evenodd" clip-rule="evenodd" d="M1396.6 778.457C1380.68 779.841 1364.49 780.473 1348.03 780.354C1346.25 780.996 1344.48 781.628 1342.72 782.25C1343.67 781.009 1344.94 780.124 1346.52 779.595C1363.22 779.388 1379.91 779.009 1396.6 778.457Z" fill="#080909"/>
<path fill-rule="evenodd" clip-rule="evenodd" d="M1533.18 778.457C1595.85 779.215 1659.09 779.468 1722.88 779.215C1720.39 780.135 1717.86 780.894 1715.29 781.492C1702.53 781.041 1689.75 780.787 1676.97 780.733C1581.24 781.303 1485.51 781.682 1389.77 781.871C1391.69 782.012 1393.47 782.392 1395.08 783.009C1379.11 782.773 1363.18 783.027 1347.28 783.768C1346.35 783.036 1345.34 783.162 1344.24 784.147C1343.36 785.033 1342.47 785.918 1341.59 786.803C1341.3 786.108 1340.92 785.475 1340.45 784.906C1341.37 784.118 1342.13 783.232 1342.72 782.25C1344.48 781.628 1346.25 780.996 1348.04 780.353C1364.5 780.473 1380.68 779.841 1396.6 778.457C1399.89 778.457 1403.18 778.457 1406.46 778.457C1404.59 779.076 1402.57 779.456 1400.39 779.595C1416.96 779.721 1433.53 779.847 1450.09 779.974C1473.12 780.131 1496.01 779.625 1518.76 778.457C1523.47 778.185 1528.28 778.185 1533.18 778.457Z" fill="#323333"/>
<path fill-rule="evenodd" clip-rule="evenodd" d="M1406.46 778.457C1443.78 778.542 1481.22 778.542 1518.76 778.457C1496.01 779.625 1473.12 780.131 1450.09 779.974C1433.52 779.847 1416.96 779.721 1400.39 779.595C1402.56 779.456 1404.59 779.076 1406.46 778.457Z" fill="#161717"/>
<path fill-rule="evenodd" clip-rule="evenodd" d="M1715.29 781.492C1717.73 781.256 1720 781.509 1722.12 782.25C1701.26 782.184 1680.39 781.931 1659.52 781.492C1616.27 781.998 1573.02 782.503 1529.77 783.009C1484.81 782.269 1439.92 782.269 1395.08 783.009C1393.47 782.392 1391.69 782.012 1389.77 781.871C1485.51 781.682 1581.24 781.303 1676.97 780.733C1689.75 780.787 1702.53 781.041 1715.29 781.492Z" fill="#0A0A0A"/>
<path fill-rule="evenodd" clip-rule="evenodd" d="M1137.85 847.506C1138.15 812.855 1138.41 778.204 1138.61 743.552C1139.16 743.235 1139.54 742.73 1139.75 742.035C1139.88 745.322 1140 748.611 1140.13 751.899C1139.49 784.326 1138.73 816.195 1137.85 847.506Z" fill="#070808"/>
<path fill-rule="evenodd" clip-rule="evenodd" d="M1319.96 833.848C1321.19 839.603 1320.44 845.168 1317.68 850.541C1312.14 854.778 1305.81 856.801 1298.71 856.612C1293.54 855.983 1288.23 855.603 1282.78 855.474C1244.84 855.221 1206.9 854.967 1168.96 854.715C1165.11 854.373 1161.95 852.728 1159.48 849.783C1159.17 849.956 1159.05 850.209 1159.1 850.541C1158.12 849.523 1157.48 848.258 1157.2 846.747C1156.82 844.092 1156.44 841.436 1156.06 838.78C1155.79 834.361 1156.17 829.935 1157.2 825.501C1157.33 802.609 1157.71 779.846 1158.34 757.21C1159.03 730.169 1159.53 701.587 1159.86 671.467C1159.86 663.749 1159.6 656.161 1159.1 648.704C1158.45 647.539 1158.45 646.527 1159.1 645.668C1159.73 636.114 1160.11 625.998 1160.23 615.317C1160.49 613.799 1160.74 612.282 1160.99 610.764C1161.25 611.523 1161.5 612.282 1161.75 613.04C1161.3 668.557 1161.43 723.949 1162.13 779.215C1161.88 779.721 1161.63 780.227 1161.37 780.733C1160.36 795.656 1160.36 810.578 1161.37 825.501C1161.37 827.019 1161.37 828.537 1161.37 830.054C1160.79 829.475 1160.41 828.716 1160.23 827.778C1159.73 833.595 1159.73 839.412 1160.23 845.23C1160.56 847.146 1161.44 848.663 1162.89 849.783C1165.54 850.868 1168.32 851.501 1171.24 851.68C1216.77 853.166 1262.29 853.166 1307.82 851.68C1310.63 850.969 1313.03 849.579 1315.03 847.506C1316.29 769.394 1316.54 691.238 1315.79 613.04C1315.44 610.328 1314.3 608.051 1312.37 606.211C1310.03 605.239 1308.26 604.101 1307.06 602.797C1309.55 602.233 1311.83 602.739 1313.89 604.314C1313.25 605.579 1313.63 605.705 1315.03 604.694C1316.88 606.627 1318.14 608.904 1318.82 611.523C1318.95 687.17 1319.32 761.278 1319.96 833.848Z" fill="#2C2D2D"/>
<path fill-rule="evenodd" clip-rule="evenodd" d="M1161.37 780.733C1161.83 795.223 1161.82 810.147 1161.37 825.501C1160.36 810.578 1160.36 795.656 1161.37 780.733Z" fill="#030404"/>
<path fill-rule="evenodd" clip-rule="evenodd" d="M1231.94 789.08C1232.65 801.163 1233.16 813.303 1233.46 825.501C1232.65 825.81 1231.64 825.81 1230.42 825.501C1230.64 824.903 1231.02 824.397 1231.56 823.984C1231.94 812.352 1232.07 800.717 1231.94 789.08Z" fill="#0C0D0D"/>
<path fill-rule="evenodd" clip-rule="evenodd" d="M1199.31 787.562C1199.31 788.068 1199.57 788.321 1200.07 788.321C1210.69 788.798 1221.31 789.052 1231.94 789.08C1232.07 800.717 1231.94 812.352 1231.56 823.984C1231.02 824.397 1230.64 824.903 1230.43 825.501C1215.47 825.736 1200.54 825.483 1185.66 824.743C1184.51 824.734 1183.62 824.229 1183 823.225C1182.49 812.602 1182.49 801.979 1183 791.356C1183.63 789.712 1184.77 788.573 1186.42 787.941C1190.71 787.563 1195.01 787.436 1199.31 787.562Z" fill="#F5F4F1"/>
<path fill-rule="evenodd" clip-rule="evenodd" d="M1285.06 786.803C1289.25 786.56 1293.3 786.812 1297.2 787.562C1293.65 787.436 1290.11 787.563 1286.57 787.941C1290.39 788.071 1294.19 788.451 1297.96 789.08C1281.02 789.838 1264.07 790.091 1247.12 789.838C1247.12 789.08 1247.12 788.321 1247.12 787.562C1259.9 787.812 1272.54 787.56 1285.06 786.803Z" fill="#343536"/>
<path fill-rule="evenodd" clip-rule="evenodd" d="M1285.06 786.803C1272.54 787.56 1259.9 787.812 1247.12 787.562C1247.12 788.321 1247.12 789.08 1247.12 789.838C1264.07 790.091 1281.02 789.838 1297.96 789.08C1294.19 788.451 1290.39 788.071 1286.57 787.941C1290.11 787.563 1293.65 787.436 1297.2 787.562C1298.87 788.287 1299.13 789.425 1297.96 790.977C1280.75 791.383 1263.56 791.257 1246.36 790.597C1246.36 789.332 1246.36 788.068 1246.36 786.803C1259.26 786.803 1272.16 786.803 1285.06 786.803Z" fill="#1B1C1C"/>
<path fill-rule="evenodd" clip-rule="evenodd" d="M1235.73 811.085C1235.1 803.883 1234.73 796.548 1234.6 789.08C1234.24 787.994 1233.61 787.109 1232.7 786.424C1218.94 784.587 1205.28 784.587 1191.72 786.424C1194.4 786.56 1196.93 786.939 1199.31 787.562C1195.01 787.436 1190.71 787.563 1186.41 787.942C1184.77 788.574 1183.63 789.712 1183 791.356C1182.49 801.979 1182.49 812.602 1183 823.225C1183.62 824.229 1184.5 824.735 1185.65 824.743C1184.4 825.729 1183.26 825.476 1182.24 823.984C1181.99 813.108 1181.73 802.232 1181.48 791.356C1181.17 791.703 1180.79 791.956 1180.34 792.115C1179.58 803.739 1179.33 815.373 1179.58 827.019C1178.56 823.529 1178.06 819.862 1178.07 816.017C1178.55 807.801 1178.93 799.581 1179.2 791.356C1179.75 787.862 1181.64 785.46 1184.9 784.148C1194.55 783.867 1204.16 783.74 1213.73 783.768C1220.32 784.261 1226.89 784.893 1233.46 785.665C1234.09 786.297 1234.72 786.93 1235.36 787.562C1235.73 795.399 1235.86 803.24 1235.73 811.085Z" fill="#1B1B1B"/>
<path fill-rule="evenodd" clip-rule="evenodd" d="M1200.07 788.321C1210.31 787.44 1220.68 787.314 1231.18 787.941C1231.6 788.232 1231.86 788.611 1231.94 789.08C1221.31 789.052 1210.69 788.798 1200.07 788.321Z" fill="#181818"/>
<path fill-rule="evenodd" clip-rule="evenodd" d="M1231.94 759.487C1235.02 759.241 1238.05 759.493 1241.05 760.245C1237.06 760.628 1233.27 761.387 1229.67 762.522C1213.21 762.683 1196.77 762.43 1180.34 761.763C1197.54 760.898 1214.74 760.139 1231.94 759.487Z" fill="#252626"/>
<path fill-rule="evenodd" clip-rule="evenodd" d="M1184.9 757.969C1183.85 757.85 1182.84 757.977 1181.86 758.349C1198.53 759.406 1215.22 759.786 1231.94 759.487C1214.74 760.139 1197.54 760.898 1180.34 761.763C1178.84 760.255 1178.84 758.863 1180.34 757.59C1182.02 756.991 1183.54 757.118 1184.9 757.969Z" fill="#373838"/>
<path fill-rule="evenodd" clip-rule="evenodd" d="M1184.9 757.969C1203.59 758.386 1222.31 758.512 1241.04 758.348C1243.07 759.613 1243.07 760.878 1241.04 762.142C1237.26 762.521 1233.47 762.648 1229.66 762.522C1233.27 761.387 1237.06 760.628 1241.04 760.245C1238.05 759.493 1235.02 759.241 1231.94 759.487C1215.22 759.786 1198.53 759.406 1181.86 758.349C1182.84 757.977 1183.85 757.85 1184.9 757.969Z" fill="#0E0F10"/>
<path fill-rule="evenodd" clip-rule="evenodd" d="M1222.84 726.1C1208.93 726.62 1195.02 726.999 1181.1 727.238C1180.76 727.552 1180.5 727.932 1180.34 728.376C1198.8 729.135 1217.27 729.388 1235.74 729.135C1244.08 729.135 1252.43 729.135 1260.78 729.135C1234.09 729.965 1207.28 730.345 1180.34 730.273C1179.33 729.009 1179.33 727.744 1180.34 726.479C1193.13 726.291 1205.9 725.912 1218.66 725.341C1220.21 725.346 1221.6 725.599 1222.84 726.1Z" fill="#1E1E1E"/>
<path fill-rule="evenodd" clip-rule="evenodd" d="M1248.63 725.341C1252.94 725.215 1257.24 725.342 1261.53 725.721C1263.36 727.114 1263.11 728.252 1260.77 729.135C1252.43 729.135 1244.08 729.135 1235.73 729.135C1243.95 728.505 1252.3 728.126 1260.77 727.997C1261.79 727.491 1261.79 726.986 1260.77 726.479C1256.59 726.348 1252.54 725.969 1248.63 725.341Z" fill="#020203"/>
<path fill-rule="evenodd" clip-rule="evenodd" d="M1248.63 725.341C1252.54 725.969 1256.59 726.348 1260.77 726.479C1261.79 726.986 1261.79 727.491 1260.77 727.997C1252.3 728.126 1243.95 728.505 1235.74 729.135C1217.27 729.388 1198.8 729.135 1180.34 728.376C1180.5 727.932 1180.76 727.552 1181.1 727.238C1195.02 726.999 1208.93 726.62 1222.84 726.1C1231.42 725.429 1240.01 725.177 1248.63 725.341Z" fill="#343535"/>
<path fill-rule="evenodd" clip-rule="evenodd" d="M1181.1 695.749C1219.8 696.291 1258.5 696.67 1297.2 696.887C1298.21 698.152 1298.21 699.416 1297.2 700.681C1258.5 701.187 1219.8 701.187 1181.1 700.681C1179.16 699.045 1179.16 697.4 1181.1 695.749Z" fill="#282828"/>
<path fill-rule="evenodd" clip-rule="evenodd" d="M1181.1 697.266C1219.81 696.984 1258.51 697.491 1297.2 698.783C1258.5 699.669 1219.8 699.795 1181.1 699.163C1180.27 698.579 1180.27 697.947 1181.1 697.266Z" fill="#38393A"/>
<path fill-rule="evenodd" clip-rule="evenodd" d="M1179.59 668.432C1180.44 670.133 1181.32 671.904 1182.24 673.744C1183.49 674.667 1184.88 675.299 1186.42 675.641C1219.04 676.694 1251.66 676.947 1284.3 676.399C1288.53 676.227 1292.57 675.342 1296.44 673.744C1296.02 674.722 1295.26 675.355 1294.16 675.641C1291.17 676.394 1288.14 676.9 1285.06 677.158C1253.44 677.664 1221.83 677.664 1190.21 677.158C1183.68 677.595 1180.14 674.686 1179.59 668.432Z" fill="#101010"/>
<path fill-rule="evenodd" clip-rule="evenodd" d="M1256.98 625.94C1266.98 626.134 1276.84 626.64 1286.57 627.458C1284.53 627.333 1282.51 627.46 1280.5 627.837C1285.33 628.134 1290.14 628.64 1294.92 629.354C1296 629.707 1296.89 630.34 1297.57 631.251C1298.39 640.356 1299.02 649.462 1299.47 658.568C1299.06 663.439 1298.3 668.245 1297.2 672.985C1297.2 673.491 1296.94 673.744 1296.44 673.744C1292.57 675.342 1288.52 676.227 1284.3 676.399C1251.66 676.947 1219.03 676.694 1186.41 675.641C1184.88 675.299 1183.49 674.667 1182.24 673.744C1181.32 671.904 1180.43 670.133 1179.58 668.432C1178.57 655.785 1178.57 643.139 1179.58 630.493C1180.73 629.479 1181.99 628.593 1183.38 627.837C1207.66 627.584 1231.94 627.331 1256.22 627.078C1256.64 626.788 1256.9 626.408 1256.98 625.94Z" fill="#2F3030"/>
<path fill-rule="evenodd" clip-rule="evenodd" d="M1202.35 672.985C1229.32 673.428 1256.39 673.681 1283.54 673.744C1256.74 674.622 1227.91 674.748 1197.04 674.123C1198.96 673.982 1200.73 673.603 1202.35 672.985Z" fill="#0F0F0F"/>
<path fill-rule="evenodd" clip-rule="evenodd" d="M1286.57 627.457C1290.89 627.178 1294.81 628.19 1298.34 630.493C1300.57 643.837 1300.82 657.243 1299.09 670.708C1298.81 671.803 1298.18 672.561 1297.2 672.985C1298.3 668.245 1299.06 663.439 1299.47 658.568C1299.03 649.462 1298.39 640.356 1297.58 631.251C1296.89 630.34 1296.01 629.707 1294.92 629.354C1290.14 628.64 1285.33 628.133 1280.5 627.837C1282.51 627.46 1284.54 627.333 1286.57 627.457Z" fill="#111111"/>
<path fill-rule="evenodd" clip-rule="evenodd" d="M1295.68 633.528C1296.26 634.107 1296.64 634.866 1296.82 635.804C1297.33 646.427 1297.33 657.05 1296.82 667.673C1296.57 668.432 1296.31 669.191 1296.06 669.95C1295.71 669.499 1295.58 668.993 1295.68 668.432C1295.68 656.798 1295.68 645.162 1295.68 633.528Z" fill="#171717"/>
<path fill-rule="evenodd" clip-rule="evenodd" d="M1195.52 630.493C1227.65 630.291 1259.77 630.67 1291.89 631.631C1293.37 631.909 1294.63 632.541 1295.68 633.528C1295.68 645.162 1295.68 656.798 1295.68 668.432C1295.26 670.02 1294.25 671.158 1292.65 671.847C1289.51 672.483 1286.47 673.116 1283.54 673.744C1256.39 673.681 1229.33 673.428 1202.35 672.985C1197.03 673.111 1191.72 672.985 1186.42 672.605C1184.77 671.973 1183.63 670.835 1183 669.191C1182.49 656.544 1182.49 643.898 1183 631.251C1187.1 630.513 1191.28 630.26 1195.52 630.493Z" fill="#F7F6F2"/>
<path fill-rule="evenodd" clip-rule="evenodd" d="M1295.68 633.528C1294.63 632.541 1293.37 631.908 1291.88 631.631C1259.77 630.67 1227.65 630.291 1195.52 630.493C1192.88 629.868 1190.1 629.489 1187.17 629.354C1220.02 629.003 1252.9 629.256 1285.81 630.113C1288.91 630.288 1291.95 630.795 1294.92 631.631C1295.49 632.14 1295.74 632.772 1295.68 633.528Z" fill="#171818"/>
<path fill-rule="evenodd" clip-rule="evenodd" d="M1256.98 625.94C1256.9 626.408 1256.65 626.787 1256.22 627.078C1231.94 627.331 1207.66 627.584 1183.38 627.837C1182 628.593 1180.73 629.479 1179.59 630.493C1179.86 629.073 1180.62 627.935 1181.86 627.078C1184.14 626.825 1186.42 626.572 1188.69 626.319C1211.45 625.94 1234.22 625.813 1256.98 625.94Z" fill="#131414"/>
<path fill-rule="evenodd" clip-rule="evenodd" d="M1292.64 815.637C1277.6 814.881 1262.42 814.628 1247.12 814.878C1247.12 814.12 1247.12 813.361 1247.12 812.602C1248.57 812.818 1249.83 812.565 1250.91 811.843C1251.5 811.352 1252.26 811.1 1253.19 811.084C1268.35 811.69 1283.53 812.069 1298.71 812.223C1299.65 813.12 1299.65 814.005 1298.71 814.878C1296.75 815.556 1294.73 815.809 1292.64 815.637Z" fill="#2A2B2B"/>
<path fill-rule="evenodd" clip-rule="evenodd" d="M1250.91 811.843C1249.83 812.565 1248.57 812.818 1247.12 812.602C1247.12 813.361 1247.12 814.12 1247.12 814.878C1262.42 814.628 1277.6 814.881 1292.64 815.637C1277.22 815.637 1261.79 815.637 1246.36 815.637C1246.36 814.372 1246.36 813.108 1246.36 811.843C1247.88 811.843 1249.39 811.843 1250.91 811.843Z" fill="#030404"/>
<path fill-rule="evenodd" clip-rule="evenodd" d="M1143.16 761.763C1141.95 802.704 1141.57 843.678 1142.02 884.687C1142.41 886.218 1142.79 887.736 1143.16 889.24C1143.21 889.572 1143.09 889.825 1142.78 889.998C1141.67 887.321 1140.91 884.539 1140.51 881.652C1140.38 875.834 1140.25 870.017 1140.13 864.2C1140.96 826.776 1141.6 789.342 1142.03 751.899C1142.16 755.328 1142.54 758.616 1143.16 761.763Z" fill="#141414"/>
<path fill-rule="evenodd" clip-rule="evenodd" d="M1342.72 782.25C1342.12 783.232 1341.37 784.118 1340.45 784.906C1340.92 785.475 1341.3 786.108 1341.59 786.803C1342.47 785.918 1343.36 785.033 1344.24 784.147C1345.34 783.163 1346.35 783.036 1347.28 783.768C1342.33 786.57 1339.67 790.869 1339.31 796.667C1339.29 821.896 1339.29 846.936 1339.31 871.788C1338.83 877.642 1338.08 883.459 1337.03 889.24C1335.97 894.164 1333.56 898.211 1329.82 901.38C1334.99 894.216 1337.64 886.122 1337.79 877.099C1337.82 850.91 1337.94 824.731 1338.17 798.564C1338.07 796.855 1337.69 795.211 1337.03 793.632C1336.78 794.644 1336.53 795.656 1336.27 796.667C1335.98 796.246 1335.6 795.993 1335.14 795.909C1335.48 792.377 1336.62 789.089 1338.55 786.044C1339.37 784.088 1340.76 782.823 1342.72 782.25Z" fill="#1A1A1B"/>
<path fill-rule="evenodd" clip-rule="evenodd" d="M1235.73 811.085C1236.92 816.411 1236.54 821.723 1234.6 827.019C1232.01 828.927 1229.1 829.685 1225.87 829.295C1212.59 828.713 1199.18 828.207 1185.65 827.778C1183.74 827.78 1181.97 828.034 1180.34 828.537C1179.71 828.277 1179.45 827.772 1179.58 827.019C1179.33 815.373 1179.58 803.739 1180.34 792.115C1180.79 791.956 1181.17 791.703 1181.48 791.356C1181.73 802.232 1181.99 813.108 1182.24 823.984C1183.26 825.476 1184.4 825.728 1185.65 824.743C1200.54 825.483 1215.46 825.736 1230.42 825.501C1231.64 825.81 1232.65 825.81 1233.46 825.501C1233.16 813.303 1232.65 801.163 1231.94 789.08C1231.86 788.611 1231.6 788.232 1231.18 787.941C1220.68 787.314 1210.31 787.44 1200.07 788.321C1199.56 788.321 1199.31 788.068 1199.31 787.562C1196.93 786.939 1194.4 786.56 1191.72 786.424C1205.28 784.587 1218.93 784.587 1232.7 786.424C1233.61 787.109 1234.24 787.994 1234.6 789.08C1234.72 796.548 1235.1 803.883 1235.73 811.085Z" fill="#2F3031"/>
<path fill-rule="evenodd" clip-rule="evenodd" d="M1180.34 828.537C1181.97 828.034 1183.74 827.78 1185.66 827.778C1199.18 828.207 1212.59 828.713 1225.87 829.295C1210.66 829.531 1195.48 829.277 1180.34 828.537Z" fill="#131313"/>
<path fill-rule="evenodd" clip-rule="evenodd" d="M1161.37 830.054C1160.12 836.756 1160.62 843.332 1162.89 849.783C1161.44 848.663 1160.56 847.146 1160.23 845.23C1159.73 839.412 1159.73 833.595 1160.23 827.778C1160.41 828.716 1160.79 829.475 1161.37 830.054Z" fill="#0A0B0B"/>
<path fill-rule="evenodd" clip-rule="evenodd" d="M1335.14 797.426C1335.67 802.386 1336.18 807.445 1336.66 812.602C1335.76 824.842 1335.76 837.109 1336.66 849.403C1336.44 862.231 1335.56 875.004 1334 887.722C1333.53 890.24 1332.65 892.011 1331.34 893.034C1332.95 887.58 1334.09 882.015 1334.76 876.34C1334.77 850.026 1334.89 823.721 1335.14 797.426Z" fill="#181819"/>
<path fill-rule="evenodd" clip-rule="evenodd" d="M1298.71 856.612C1256.47 856.738 1214.23 856.612 1172 856.232C1166.74 856.262 1162.44 854.365 1159.1 850.541C1159.05 850.209 1159.17 849.956 1159.48 849.783C1161.95 852.728 1165.11 854.373 1168.96 854.715C1206.9 854.967 1244.84 855.221 1282.78 855.474C1288.23 855.603 1293.54 855.983 1298.71 856.612Z" fill="#161717"/>
<path fill-rule="evenodd" clip-rule="evenodd" d="M1382.94 862.682C1383.26 863.23 1383.76 863.609 1384.46 863.82C1397.61 864.326 1410.76 864.326 1423.92 863.82C1422.24 863.675 1420.72 863.296 1419.36 862.682C1421.8 862.447 1424.08 862.7 1426.19 863.441C1438.33 864.452 1450.47 864.452 1462.61 863.441C1464.73 862.7 1467.01 862.447 1469.44 862.682C1469.13 863.23 1468.62 863.609 1467.93 863.82C1493.74 864.443 1517.01 864.316 1537.73 863.441C1539.86 862.577 1542.14 862.451 1544.56 863.062C1546.24 864.536 1546.24 865.8 1544.56 866.856C1482.82 866.986 1421.1 867.365 1359.42 867.994C1358.32 867.385 1357.05 867.006 1355.62 866.856C1357.24 866.444 1358.76 865.811 1360.18 864.959C1367.63 864.452 1374.97 863.947 1382.18 863.441C1382.18 862.935 1382.44 862.682 1382.94 862.682Z" fill="#2C2D2E"/>
<path fill-rule="evenodd" clip-rule="evenodd" d="M1469.44 862.682C1492.32 863.416 1515.09 863.669 1537.73 863.441C1517.01 864.316 1493.74 864.443 1467.93 863.82C1468.62 863.609 1469.13 863.23 1469.44 862.682Z" fill="#0F1010"/>
<path fill-rule="evenodd" clip-rule="evenodd" d="M1426.19 863.441C1438.33 864.452 1450.47 864.452 1462.61 863.441C1450.51 863.43 1438.36 863.43 1426.19 863.441Z" fill="#0D0F0F"/>
<path fill-rule="evenodd" clip-rule="evenodd" d="M1382.94 862.682C1395.08 863.653 1407.22 863.653 1419.36 862.682C1420.72 863.296 1422.24 863.675 1423.92 863.82C1410.76 864.326 1397.61 864.326 1384.46 863.82C1383.76 863.609 1383.26 863.23 1382.94 862.682Z" fill="#090A0A"/>
<path fill-rule="evenodd" clip-rule="evenodd" d="M1257.74 880.134C1258.45 880.945 1258.7 881.956 1258.5 883.169C1257.39 885.015 1256.51 887.038 1255.84 889.24C1255.57 884.854 1254.69 880.555 1253.19 876.34C1252.5 875.741 1252 874.982 1251.67 874.064C1243.96 873.434 1236.12 873.055 1228.15 872.926C1226.08 872.612 1224.05 872.106 1222.08 871.408C1232.45 870.902 1242.82 870.902 1253.19 871.408C1254.58 871.788 1255.46 872.673 1255.84 874.064C1256.43 876.831 1256.94 879.614 1257.36 882.411C1257.73 881.691 1257.85 880.932 1257.74 880.134Z" fill="#313333"/>
<path fill-rule="evenodd" clip-rule="evenodd" d="M1382.18 863.441C1374.97 863.947 1367.63 864.452 1360.17 864.958C1358.76 865.811 1357.24 866.443 1355.62 866.855C1357.05 867.006 1358.32 867.385 1359.42 867.994C1357.14 867.806 1355.24 868.565 1353.73 870.27C1353.08 873.4 1353.33 876.435 1354.48 879.375C1356.57 880.861 1358.72 882.252 1360.93 883.549C1451.39 883.861 1541.43 884.24 1631.06 884.687C1546.09 885.567 1457.06 885.694 1363.97 885.066C1360.39 884.604 1357.23 883.213 1354.48 880.893C1354.2 881.588 1353.82 882.221 1353.35 882.79C1354.6 884.178 1356.12 885.19 1357.9 885.825C1357.73 886.128 1357.47 886.254 1357.14 886.205C1353.66 885.126 1351.26 882.85 1349.93 879.375C1349.72 875.811 1349.34 872.271 1348.79 868.752C1350.42 864.963 1353.32 862.939 1357.52 862.682C1365.72 863.379 1373.94 863.632 1382.18 863.441Z" fill="#161717"/>
<path fill-rule="evenodd" clip-rule="evenodd" d="M1785.86 880.893C1785.01 880.936 1784.26 881.189 1783.58 881.652C1780.13 883.857 1776.34 885.249 1772.2 885.825C1703.02 886.593 1633.97 887.479 1565.05 888.481C1558.22 888.481 1551.39 888.481 1544.56 888.481C1547.45 887.856 1550.49 887.476 1553.67 887.343C1489.3 886.711 1425.05 886.837 1360.93 887.722C1359.49 887.498 1358.23 886.991 1357.14 886.205C1357.47 886.254 1357.73 886.128 1357.9 885.825C1356.12 885.19 1354.6 884.178 1353.35 882.79C1353.82 882.221 1354.2 881.588 1354.49 880.893C1357.23 883.213 1360.39 884.604 1363.97 885.066C1457.06 885.694 1546.09 885.567 1631.06 884.687C1633.18 883.946 1635.45 883.693 1637.89 883.928C1681.02 884.812 1724.27 884.939 1767.65 884.308C1753.61 884.18 1739.69 883.801 1725.91 883.169C1740.58 883.296 1755.25 883.169 1769.92 882.79C1773.52 882.506 1776.81 881.368 1779.79 879.375C1780.09 880.153 1780.59 880.28 1781.3 879.755C1783.28 878.284 1784.67 876.387 1785.48 874.064C1785.23 869.511 1784.97 864.958 1784.72 860.406C1788.3 868.34 1789.94 876.686 1789.65 885.446C1789.61 888.028 1789.23 890.557 1788.51 893.034C1788.19 889.865 1787.81 886.704 1787.38 883.549C1787.29 882.273 1786.79 881.388 1785.86 880.893Z" fill="#333435"/>
<path fill-rule="evenodd" clip-rule="evenodd" d="M1725.91 883.169C1739.7 883.801 1753.61 884.18 1767.65 884.308C1724.27 884.939 1681.02 884.812 1637.89 883.928C1667.24 883.925 1696.58 883.672 1725.91 883.169Z" fill="#161616"/>
<path fill-rule="evenodd" clip-rule="evenodd" d="M1360.93 887.722C1425.05 886.837 1489.29 886.712 1553.67 887.343C1550.49 887.476 1547.45 887.856 1544.56 888.481C1483.37 888.193 1422.16 887.94 1360.93 887.722Z" fill="#0F1010"/>
<path fill-rule="evenodd" clip-rule="evenodd" d="M1783.58 881.652C1782.52 883.327 1781.01 884.465 1779.03 885.066C1776.05 886.063 1773.02 886.821 1769.92 887.343C1701.56 887.541 1633.27 887.92 1565.05 888.481C1633.97 887.479 1703.02 886.593 1772.2 885.825C1776.34 885.249 1780.13 883.857 1783.58 881.652Z" fill="#0E0F0F"/>
<path fill-rule="evenodd" clip-rule="evenodd" d="M1257.74 880.134C1257.85 880.932 1257.73 881.691 1257.36 882.411C1256.94 879.614 1256.43 876.831 1255.84 874.064C1255.46 872.673 1254.58 871.788 1253.19 871.408C1242.82 870.902 1232.45 870.902 1222.08 871.408C1224.05 872.106 1226.07 872.612 1228.15 872.926C1236.12 873.055 1243.96 873.434 1251.67 874.064C1242.07 874.6 1232.46 874.726 1222.84 874.443C1222.27 878.068 1221.76 881.736 1221.32 885.446C1221.85 888.127 1223.36 890.024 1225.87 891.137C1233.21 891.643 1240.54 891.643 1247.88 891.137C1250.3 890.376 1252.2 888.984 1253.57 886.963C1253.57 883.437 1253.44 879.896 1253.19 876.34C1254.68 880.555 1255.57 884.854 1255.84 889.24C1256.51 887.038 1257.39 885.015 1258.5 883.169C1257.81 890.062 1254.01 894.236 1247.12 895.689C1240.29 896.196 1233.46 896.196 1226.63 895.689C1223.04 895.05 1220.51 893.153 1219.04 889.998C1221.51 892.623 1224.54 894.267 1228.15 894.931C1233.71 895.437 1239.28 895.437 1244.84 894.931C1247.22 894.475 1249.5 893.716 1251.67 892.654C1249.73 891.563 1247.71 891.563 1245.6 892.654C1239.53 893.16 1233.46 893.16 1227.39 892.654C1220.73 890.531 1218.45 886.104 1220.56 879.375C1220.64 877.45 1220.26 875.679 1219.42 874.064C1218.73 878.718 1218.1 883.271 1217.52 887.722C1217.4 883.163 1217.52 878.61 1217.9 874.064C1219.32 872.388 1220.97 870.997 1222.84 869.891C1232.7 869.384 1242.56 869.384 1252.43 869.891C1253.63 870.427 1254.77 871.059 1255.84 871.788C1257.07 874.433 1257.71 877.216 1257.74 880.134Z" fill="#1C1C1D"/>
<path fill-rule="evenodd" clip-rule="evenodd" d="M1251.67 874.064C1252 874.982 1252.5 875.741 1253.19 876.34C1253.44 879.896 1253.57 883.437 1253.56 886.963C1252.2 888.984 1250.3 890.376 1247.87 891.137C1240.54 891.643 1233.2 891.643 1225.87 891.137C1223.36 890.024 1221.85 888.127 1221.32 885.446C1221.76 881.736 1222.27 878.068 1222.83 874.443C1232.46 874.726 1242.07 874.6 1251.67 874.064Z" fill="#F7F6F3"/>
<path fill-rule="evenodd" clip-rule="evenodd" d="M1219.04 889.998C1217.97 889.64 1217.47 888.881 1217.52 887.722C1218.1 883.271 1218.73 878.718 1219.42 874.064C1220.26 875.679 1220.64 877.45 1220.56 879.375C1218.45 886.104 1220.73 890.531 1227.39 892.654C1233.46 893.16 1239.53 893.16 1245.6 892.654C1247.71 891.563 1249.73 891.563 1251.67 892.654C1249.5 893.716 1247.22 894.475 1244.84 894.931C1239.28 895.437 1233.71 895.437 1228.15 894.931C1224.54 894.267 1221.51 892.623 1219.04 889.998Z" fill="#343636"/>
<path fill-rule="evenodd" clip-rule="evenodd" d="M1146.2 902.898C1143.05 903.403 1139.76 903.656 1136.33 903.656C1101.56 902.608 86.9134 901.849 52.3789 901.38C90.2256 900.974 1108.17 901.48 1146.2 902.898Z" fill="#101010"/>
<path fill-rule="evenodd" clip-rule="evenodd" d="M1737.29 762.522C1737.43 764.109 1737.18 765.626 1736.53 767.075C1736.91 767.833 1737.29 768.592 1737.67 769.351C1738.54 767.273 1739.43 765.755 1740.33 764.798C1738.7 770.861 1735.16 775.54 1729.71 778.836C1737.6 779.681 1743.79 783.349 1748.3 789.838C1759.82 810.361 1770.95 831.101 1781.68 852.059C1785.51 858.45 1788.29 865.279 1790.03 872.546C1794.69 896.063 1785.21 908.71 1761.58 910.486C1744.26 909.729 1726.8 909.476 1709.22 909.727C1728.31 909.096 1747.54 908.716 1766.89 908.589C1762.58 908.237 1762.33 907.731 1766.13 907.071C1762.6 906.693 1759.06 906.566 1755.5 906.692C1760.77 906.181 1766.08 905.296 1771.44 904.036C1782.88 900.544 1787.69 892.83 1785.86 880.893C1786.79 881.388 1787.29 882.273 1787.38 883.549C1787.81 886.704 1788.19 889.865 1788.51 893.034C1789.23 890.557 1789.61 888.028 1789.65 885.446C1789.94 876.686 1788.3 868.34 1784.72 860.406C1784.97 864.958 1785.23 869.511 1785.48 874.064C1784.67 876.387 1783.28 878.284 1781.3 879.755C1780.59 880.28 1780.09 880.153 1779.79 879.375C1783.69 876.881 1785.33 873.34 1784.72 868.752C1772.24 843.709 1759.35 818.921 1746.02 794.391C1744.45 791.296 1742.3 788.64 1739.57 786.424C1733.93 783.907 1728.11 782.516 1722.12 782.25C1720 781.509 1717.73 781.256 1715.29 781.492C1717.86 780.894 1720.39 780.135 1722.88 779.215C1723.63 779.346 1724.14 779.092 1724.4 778.457C1727.86 775.261 1731.27 771.973 1734.64 768.592C1735.76 766.575 1736.65 764.552 1737.29 762.522Z" fill="#252627"/>
<path fill-rule="evenodd" clip-rule="evenodd" d="M32.3789 905.174C58.3023 904.291 1084.35 904.164 1110.53 904.795C1114.47 904.927 1118.26 905.306 1121.92 905.933C1092.13 905.574 62.2829 905.322 32.3789 905.174Z" fill="#141415"/>
<path fill-rule="evenodd" clip-rule="evenodd" d="M1137.09 854.335C1137.56 864.351 1138.19 874.468 1138.99 884.687C1139.91 888.96 1141.43 893.008 1143.54 896.828C1144.93 895.012 1144.8 893.241 1143.16 891.516C1143.26 891.055 1143.51 890.803 1143.92 890.757C1145.92 895.422 1148.96 899.342 1153.03 902.519C1160.52 905.762 1168.36 907.406 1176.55 907.451C1167.83 909.101 1159.74 907.709 1152.27 903.277C1150.37 901.38 1148.47 899.483 1146.58 897.586C1146.01 898.061 1145.37 898.441 1144.68 898.725C1145.69 899.736 1146.7 900.748 1147.71 901.76C1147.54 902.063 1147.29 902.188 1146.96 902.139C1142.5 897.777 1139.59 892.465 1138.23 886.205C1137.19 875.613 1136.82 864.99 1137.09 854.335Z" fill="#1A1A1A"/>
<path fill-rule="evenodd" clip-rule="evenodd" d="M1755.5 906.692C1714.02 907.299 1672.42 907.805 1630.68 908.209C1623.6 908.209 1616.64 907.956 1609.82 907.451C1656.67 907.057 1703.84 906.552 1751.33 905.933C1752.62 906.621 1754.01 906.873 1755.5 906.692Z" fill="#0B0C0C"/>
<path fill-rule="evenodd" clip-rule="evenodd" d="M1329.82 901.38C1328.38 903.702 1326.36 905.346 1323.75 906.312C1338.55 906.44 1353.22 906.819 1367.76 907.451C1434.59 908.431 1514.51 908.431 1607.54 907.451C1608.3 906.439 1609.06 906.439 1609.82 907.451C1616.64 907.956 1623.6 908.209 1630.69 908.209C1672.42 907.805 1714.02 907.299 1755.5 906.692C1759.06 906.566 1762.6 906.693 1766.13 907.071C1762.33 907.731 1762.58 908.237 1766.89 908.589C1747.54 908.716 1728.31 909.096 1709.22 909.727C1584.78 910.581 1460.34 910.581 1335.9 909.727C1283.04 910.99 1230.18 911.496 1177.31 911.245C1169.26 911.486 1161.42 910.348 1153.79 907.83C1143.14 907.125 1132.52 906.493 1121.92 905.933C1118.26 905.306 1114.47 904.927 1110.53 904.795C1084.35 904.164 -181.697 904.291 -207.62 905.174C-207.873 905.174 -208.126 905.174 -208.379 905.174C-208.379 903.909 -208.379 902.645 -208.379 901.38C-208.126 901.38 -207.873 901.38 -207.62 901.38C-173.086 901.849 1101.57 902.608 1136.33 903.657C1139.76 903.656 1143.05 903.403 1146.2 902.898C1146.7 902.898 1146.96 902.645 1146.96 902.139C1147.29 902.188 1147.54 902.063 1147.71 901.76C1146.7 900.748 1145.69 899.736 1144.68 898.725C1145.37 898.441 1146.01 898.061 1146.58 897.586C1148.47 899.483 1150.37 901.38 1152.27 903.277C1159.74 907.709 1167.83 909.101 1176.55 907.451C1178.25 907.227 1179.76 907.48 1181.1 908.209C1179.81 908.088 1178.55 908.214 1177.31 908.589C1216.13 910.092 1254.83 909.966 1293.4 908.209C1300.08 907.172 1306.91 906.54 1313.89 906.312C1321.65 904.219 1327.47 899.793 1331.34 893.034C1332.65 892.011 1333.53 890.24 1334 887.722C1335.56 875.004 1336.44 862.231 1336.66 849.403C1335.76 837.109 1335.76 824.842 1336.66 812.602C1336.18 807.445 1335.67 802.386 1335.14 797.426C1335.14 796.92 1335.14 796.415 1335.14 795.909C1335.6 795.993 1335.98 796.246 1336.27 796.667C1336.53 795.656 1336.78 794.644 1337.03 793.632C1337.69 795.211 1338.07 796.855 1338.17 798.564C1337.94 824.731 1337.82 850.91 1337.79 877.099C1337.64 886.122 1334.99 894.216 1329.82 901.38Z" fill="#323333"/>
<path fill-rule="evenodd" clip-rule="evenodd" d="M1607.54 907.451C1514.51 908.431 1434.59 908.431 1367.77 907.451C1447.72 907.427 1527.65 907.427 1607.54 907.451Z" fill="#020203"/>
<path fill-rule="evenodd" clip-rule="evenodd" d="M1293.4 908.209C1254.83 909.966 1216.13 910.092 1177.31 908.589C1178.55 908.214 1179.81 908.088 1181.1 908.209C1218.55 908.015 1255.98 908.015 1293.4 908.209Z" fill="#161717"/>
<path fill-rule="evenodd" clip-rule="evenodd" d="M1709.22 909.727C1726.8 909.476 1744.26 909.729 1761.58 910.486C1658.17 910.992 1554.6 911.497 1450.85 912.003C1408.58 911.402 1366.34 910.896 1324.13 910.486C1302.34 911.342 1280.59 912.101 1258.88 912.762C1237.12 912.717 1215.24 912.591 1193.24 912.383C1187.8 912.253 1182.48 911.874 1177.31 911.245C1230.18 911.496 1283.04 910.99 1335.9 909.727C1460.34 910.581 1584.78 910.581 1709.22 909.727Z" fill="#121212"/>
</g>
</g>
</g>
<defs>
<clipPath id="clip0_951_64200">
<rect width="1920" height="1080" fill="white"/>
</clipPath>
</defs>
</svg>
