<svg width="283" height="309" viewBox="0 0 283 309" fill="none" xmlns="http://www.w3.org/2000/svg">
<path d="M208.648 285.123C201.245 291.332 191.812 295.988 180.35 299.092C168.888 302.436 155.396 304.107 139.874 304.107H19.1625C13.4314 304.107 9.25245 302.794 6.62569 300.167C3.99893 297.54 2.68555 293.361 2.68555 287.63V55.5201C2.68555 52.4158 3.04374 49.789 3.76013 47.6399C4.71532 45.4907 6.0287 43.6997 7.70028 42.2669L53.9074 3.22375C55.1014 2.26856 56.6536 1.55217 58.564 1.07457C60.7131 0.35819 62.9817 0 65.3697 0H186.081C217.364 0 240.408 6.3281 255.213 18.9843C270.257 31.6405 277.779 50.8636 277.779 76.6536V188.41C277.779 201.305 275.869 212.648 272.048 222.439C268.227 231.991 262.616 239.99 255.213 246.438L208.648 285.123ZM186.081 261.482C215.931 261.482 238.02 255.512 252.347 243.572C266.914 231.632 274.197 213.245 274.197 188.41V76.6536C274.197 51.8188 266.914 33.4315 252.347 21.4917C238.02 9.55185 215.931 3.58194 186.081 3.58194H65.3697C60.8325 3.58194 57.4894 4.65653 55.3402 6.80569C53.4298 8.71607 52.4746 11.9398 52.4746 16.4769V248.587C52.4746 253.124 53.4298 256.467 55.3402 258.616C57.4894 260.527 60.8325 261.482 65.3697 261.482H186.081ZM91.5179 229.244V35.8194H178.201C190.38 35.8194 200.17 37.1328 207.573 39.7596C215.215 42.3863 221.065 45.9683 225.125 50.5054C229.184 54.8037 231.93 60.0573 233.363 66.266C234.796 72.2359 235.512 78.6834 235.512 85.6085V180.53C235.512 187.455 234.796 193.903 233.363 199.873C232.169 205.842 229.542 210.977 225.483 215.275C221.423 219.573 215.573 223.036 207.931 225.663C200.29 228.051 190.38 229.244 178.201 229.244H91.5179ZM178.201 39.4014H95.0998V225.663H178.201C189.663 225.663 198.857 224.588 205.782 222.439C212.946 220.051 218.438 216.946 222.259 213.126C226.08 209.066 228.587 204.29 229.781 198.798C231.214 193.067 231.93 186.978 231.93 180.53V85.6085C231.93 79.161 231.214 73.0717 229.781 67.3406C228.348 61.6094 225.722 56.7141 221.901 52.6546C218.08 48.5951 212.588 45.3713 205.424 42.9833C198.499 40.5954 189.424 39.4014 178.201 39.4014ZM133.785 71.9971H176.41C182.141 71.9971 186.32 73.4299 188.947 76.2954C191.812 78.9222 193.245 83.2205 193.245 89.1904V176.232C193.245 182.202 191.812 186.619 188.947 189.485C186.32 192.35 182.141 193.783 176.41 193.783H133.785V71.9971ZM143.456 128.234C143.456 125.129 142.979 122.503 142.023 120.353C141.068 118.204 139.516 116.652 137.367 115.697V190.201H143.456V128.234Z" fill="black"/>
</svg>
